<?xml version="1.0" standalone="no"?>
<!DOCTYPE svg PUBLIC "-//W3C//DTD SVG 20010904//EN"
 "http://www.w3.org/TR/2001/REC-SVG-20010904/DTD/svg10.dtd">
<svg version="1.0" xmlns="http://www.w3.org/2000/svg"
 width="360.000000pt" height="360.000000pt" viewBox="0 0 360.000000 360.000000"
 preserveAspectRatio="xMidYMid meet">
<metadata>
Created by potrace 1.11, written by Peter Selinger 2001-2013
</metadata>
<g transform="translate(0.000000,360.000000) scale(0.100000,-0.100000)"
fill="#000000" stroke="none">
<path d="M1664 3025 c-15 -14 -38 -25 -51 -25 -13 0 -22 -4 -19 -8 4 -7 -40
-9 -54 -2 -10 5 -65 -2 -75 -10 -5 -4 -45 -10 -89 -14 -43 -4 -97 -16 -120
-27 -23 -10 -62 -21 -86 -23 -24 -2 -46 -9 -48 -15 -2 -6 -12 -11 -22 -11 -25
0 -50 -10 -50 -21 0 -5 7 -9 16 -9 8 0 12 -5 9 -10 -4 -6 -10 -8 -14 -5 -5 2
-16 -4 -26 -15 -12 -14 -31 -20 -59 -20 -45 0 -75 -13 -57 -24 6 -4 11 -15 11
-24 0 -13 -2 -14 -8 -4 -7 10 -25 5 -78 -22 -72 -37 -138 -85 -116 -86 7 0 10
-5 7 -10 -4 -6 -11 -8 -16 -5 -5 4 -13 -2 -17 -12 -4 -10 -13 -18 -19 -19 -7
-1 -22 -2 -33 -2 -12 -1 -17 -7 -14 -16 5 -14 -22 -30 -36 -21 -4 3 -25 -1
-46 -9 l-39 -14 59 4 c54 4 57 3 45 -14 -7 -9 -14 -18 -15 -20 -1 -1 -13 2
-27 9 -22 10 -30 8 -61 -17 -38 -31 -45 -44 -22 -44 34 0 23 -21 -21 -40 -35
-15 -57 -34 -81 -70 -19 -27 -43 -52 -53 -55 -11 -4 -17 -10 -14 -15 3 -5 -19
-27 -48 -50 -33 -26 -59 -55 -66 -76 -7 -19 -16 -34 -21 -34 -5 0 -14 -19 -20
-42 -6 -24 -15 -52 -20 -63 -4 -11 -9 -35 -10 -52 -1 -18 -2 -50 -3 -70 -1
-21 -6 -41 -12 -45 -5 -4 -2 -15 9 -27 10 -11 16 -26 13 -33 -2 -7 0 -21 4
-30 5 -10 5 -28 -1 -44 -8 -19 -8 -29 0 -34 7 -4 6 -28 -5 -75 -9 -37 -13 -75
-10 -84 11 -25 18 -65 16 -81 -12 -91 -11 -201 3 -235 9 -21 16 -45 16 -55 0
-9 9 -28 19 -42 13 -16 17 -29 11 -39 -7 -10 -3 -19 13 -31 12 -10 16 -18 10
-18 -19 0 -16 -23 7 -48 11 -11 17 -27 15 -34 -3 -8 10 -29 30 -48 19 -19 35
-40 35 -47 0 -17 12 -16 36 2 22 17 38 20 29 5 -3 -5 2 -10 12 -11 16 0 16 -1
-2 -8 -63 -26 -109 -272 -70 -375 12 -30 16 -61 13 -91 -3 -25 -2 -45 2 -45 4
0 11 28 14 62 10 82 29 127 53 124 10 -2 26 1 36 6 21 11 24 -11 4 -31 -10
-11 -9 -13 6 -8 15 6 17 3 12 -16 -6 -18 -5 -20 6 -9 19 18 26 15 33 -14 4
-15 2 -33 -6 -42 -7 -10 2 -4 20 12 37 34 50 29 30 -11 -11 -23 -12 -32 -1
-53 19 -38 16 -57 -12 -62 -14 -3 -25 -1 -25 3 0 5 -3 8 -7 7 -5 -1 -18 4 -31
11 -13 7 -31 10 -39 6 -14 -5 -12 -10 11 -34 33 -35 31 -61 -7 -79 -15 -7 -27
-17 -27 -23 0 -27 66 16 78 51 16 45 35 39 66 -22 10 -20 20 -59 22 -85 8
-111 22 -135 56 -95 11 11 13 24 8 37 -9 20 -15 7 -11 -22 1 -7 -2 -13 -8 -13
-5 0 -8 12 -6 27 1 14 -2 40 -7 57 -27 86 -42 345 -25 421 9 38 15 120 16 213
1 57 4 72 16 72 8 0 15 5 15 10 0 6 -4 10 -9 10 -5 0 -12 7 -15 16 -4 10 -2
13 7 8 31 -18 37 -27 27 -39 -27 -33 35 -70 107 -63 l38 3 15 -57 c19 -72 57
-111 125 -126 201 -46 636 -41 704 8 16 11 36 18 44 15 10 -4 22 11 41 50 14
31 28 64 30 73 1 9 6 24 9 32 3 8 8 32 12 52 7 46 27 58 99 58 66 0 77 -13 64
-75 -8 -39 -6 -47 28 -105 45 -77 85 -123 110 -126 10 -1 60 -9 109 -18 131
-25 289 -31 397 -17 243 33 265 42 291 121 22 70 36 83 99 90 29 4 60 10 69
14 13 6 18 -5 27 -63 7 -38 12 -104 12 -145 0 -60 3 -76 15 -76 7 0 19 -8 24
-17 10 -17 12 -17 25 0 8 10 18 17 23 15 16 -6 15 46 -1 58 -9 6 -14 18 -10
27 4 13 10 14 29 5 19 -8 27 -7 40 6 9 9 23 16 31 16 8 0 14 4 14 10 0 11 -22
63 -30 70 -41 35 -54 110 -20 110 11 0 20 6 20 13 0 8 -9 22 -20 32 -58 53 16
71 118 29 8 -4 12 4 12 23 0 24 4 29 23 29 14 -1 21 4 19 13 -2 7 6 23 16 35
45 49 73 147 68 244 -1 28 2 48 6 46 12 -8 9 9 -6 29 -8 10 -12 27 -9 38 3 10
0 25 -6 33 -8 10 -8 21 -1 41 7 19 7 31 0 41 -8 9 -8 18 0 33 7 14 9 60 5 132
-2 61 -1 119 5 128 9 18 16 155 8 181 -2 8 -10 26 -18 40 -8 14 -16 36 -18 50
-2 14 -12 35 -24 47 -16 17 -18 25 -9 42 9 17 8 22 -10 32 -17 8 -19 13 -8 19
10 7 7 18 -16 49 -15 23 -25 44 -22 48 4 3 -10 25 -31 48 -52 59 -95 122 -98
142 -5 30 -100 113 -166 145 -69 33 -118 65 -117 76 4 23 -9 34 -87 73 -60 30
-97 56 -121 86 -24 29 -48 46 -73 53 -21 6 -43 17 -50 25 -7 8 -25 15 -41 15
-27 0 -78 18 -89 31 -9 11 -120 60 -182 80 -96 31 -161 40 -307 44 -73 2 -155
9 -183 14 -73 16 -94 14 -124 -14z m-1319 -775 c-3 -5 -12 -10 -18 -10 -7 0
-6 4 3 10 19 12 23 12 15 0z m2050 -651 c9 16 38 -7 31 -26 -3 -7 0 -13 6 -13
6 0 8 -11 4 -30 -3 -19 -2 -29 4 -25 6 3 10 13 10 21 0 36 43 4 48 -36 2 -14
5 -34 7 -45 2 -11 4 -23 4 -27 1 -5 6 -7 12 -5 6 1 14 -4 17 -12 3 -10 0 -12
-13 -7 -13 4 -16 2 -11 -9 4 -10 -1 -15 -17 -16 -21 0 -21 -1 -2 -9 16 -7 11
-9 -21 -9 -62 -1 -104 -12 -98 -25 3 -6 -2 -2 -10 8 -9 11 -16 26 -16 33 0 7
-5 13 -10 13 -7 0 -7 -6 0 -19 18 -34 12 -44 -20 -37 -19 3 -29 2 -25 -4 3 -6
0 -10 -8 -10 -21 0 -43 38 -52 88 -4 23 -11 44 -16 48 -12 7 -12 24 1 24 5 0
12 -16 16 -36 5 -29 9 -33 16 -20 14 25 26 19 42 -18 16 -39 31 -52 33 -28 6
59 16 80 32 74 14 -5 14 -3 -2 22 -15 22 -16 34 -8 59 5 18 12 45 16 61 4 21
9 26 14 17 6 -10 10 -10 16 -2z m138 -84 c-3 -9 -8 -14 -10 -11 -3 3 -2 9 2
15 9 16 15 13 8 -4z m-784 -57 c10 -30 9 -31 -4 -14 -8 11 -15 26 -15 33 0 22
8 14 19 -19z m804 15 c19 -68 18 -74 -2 -61 -19 11 -34 55 -24 70 8 14 21 9
26 -9z m-893 -54 c16 -18 30 -35 30 -39 0 -4 14 -24 30 -45 36 -45 37 -43 9
20 -24 55 -20 67 10 29 l21 -27 0 32 c0 43 17 39 41 -11 12 -24 18 -32 15 -18
l-5 25 19 -25 c11 -14 20 -21 20 -16 0 5 8 2 17 -5 15 -12 16 -12 10 4 -11 29
31 1 53 -36 16 -26 20 -28 26 -13 4 9 13 15 20 12 8 -3 14 1 14 9 0 9 6 12 15
9 11 -5 15 1 15 25 0 21 5 31 15 31 8 0 15 -4 15 -10 0 -18 20 -11 21 8 0 10
3 12 6 5 6 -16 30 -17 35 -1 2 6 12 -4 21 -23 l17 -34 0 35 c1 34 2 35 13 10
6 -14 17 -29 24 -33 18 -11 16 -44 -3 -51 -24 -9 -54 -7 -54 4 0 6 -5 10 -11
10 -6 0 -9 -6 -6 -14 3 -7 1 -19 -4 -25 -6 -8 -5 -8 3 -1 18 15 32 12 19 -3
-6 -8 -7 -18 -3 -22 4 -5 2 -5 -5 -1 -6 3 -15 1 -19 -5 -4 -8 -3 -9 4 -5 16
10 15 -6 0 -24 -7 -8 -2 -6 11 5 20 16 23 17 18 4 -4 -13 -1 -16 14 -12 14 4
18 1 13 -10 -3 -8 0 -18 7 -23 8 -5 10 -3 4 7 -6 11 -5 11 5 2 9 -9 19 -9 32
-2 11 6 22 8 25 5 3 -3 15 -1 26 5 15 9 18 8 12 -2 -6 -9 -3 -10 11 -4 10 4
42 12 69 17 28 5 59 13 70 18 30 13 75 18 75 8 0 -4 19 -5 42 -2 30 5 39 4 34
-4 -4 -7 -1 -13 6 -13 37 -5 54 -3 66 5 7 5 12 4 13 -3 4 -32 6 -36 18 -33 9
2 11 -3 7 -13 -5 -13 -1 -15 15 -10 15 5 19 4 15 -4 -4 -6 0 -11 9 -11 9 0 14
-4 11 -9 -3 -5 1 -12 10 -15 8 -3 12 -2 9 4 -5 9 54 30 85 30 10 0 5 8 -13 24
-23 20 -25 25 -11 30 9 3 21 3 26 -1 7 -4 8 -1 4 6 -5 7 -14 10 -22 7 -8 -3
-23 3 -34 14 -11 11 -17 20 -12 20 4 0 -1 7 -11 14 -11 9 -17 24 -15 45 2 25
7 31 24 31 18 0 29 -14 54 -66 17 -36 33 -79 37 -95 3 -16 9 -26 14 -24 4 3
12 -3 18 -12 14 -24 14 -7 0 19 -7 13 -7 18 -1 14 15 -9 42 -66 42 -88 0 -10
5 -18 10 -18 12 0 45 -32 52 -51 9 -25 -26 -74 -56 -77 -15 -2 -30 -10 -33
-18 -8 -22 -26 -17 -53 16 -32 38 -69 45 -305 61 -196 13 -362 5 -357 -19 3
-15 -10 -16 -24 -2 -11 11 -120 -8 -194 -32 -77 -26 -174 -25 -270 1 -148 41
-297 70 -415 81 -125 12 -445 10 -445 -2 0 -5 -7 -8 -15 -8 -8 0 -25 -12 -39
-27 l-25 -27 -11 26 c-9 18 -18 24 -31 21 -10 -3 -25 -3 -34 1 -12 4 -13 10
-3 33 16 37 32 55 26 27 -5 -19 -3 -20 18 -10 13 6 24 17 24 24 0 6 8 13 18
13 16 1 16 2 0 6 -10 2 -18 11 -18 19 0 15 21 19 35 6 17 -15 118 -34 155 -30
l35 4 -35 17 -35 18 65 -6 c50 -4 59 -3 41 5 -19 8 -22 13 -13 22 10 10 20 10
45 0 29 -10 30 -10 13 3 -15 11 -16 15 -5 16 62 5 99 8 129 13 21 3 44 -1 57
-10 29 -18 37 -18 29 2 -4 10 -2 13 6 8 7 -4 28 -9 48 -11 40 -4 75 -9 75 -12
0 -2 8 -4 18 -6 20 -4 22 6 5 25 -7 8 0 6 16 -4 16 -10 25 -13 21 -6 -4 7 4 4
19 -5 17 -11 26 -13 26 -6 0 7 5 9 13 5 8 -5 8 -2 -2 9 -16 20 -8 22 21 6 18
-9 20 -9 15 4 -8 20 22 11 40 -12 15 -19 17 -7 3 19 -5 10 -21 21 -35 24 -14
4 -25 10 -25 15 0 5 -14 12 -30 16 -17 4 -35 15 -40 25 -6 12 -17 16 -30 13
-21 -6 -42 10 -54 42 -6 16 0 13 25 -10 l32 -30 -26 36 c-32 43 -33 49 -7 42
17 -4 19 -2 13 13 -5 13 2 10 19 -9 l27 -29 7 37 c6 33 8 34 18 17 39 -65 56
-86 57 -69 1 9 2 23 3 30 1 6 5 15 10 18 4 4 3 16 -3 27 -16 31 -13 41 11 37
32 -7 46 -24 28 -35 -12 -7 -11 -9 6 -8 16 2 19 7 16 30 -5 36 1 35 38 -3z
m957 -41 c-3 -8 -6 -5 -6 6 -1 11 2 17 5 13 3 -3 4 -12 1 -19z m116 -45 c6
-47 -7 -59 -17 -17 -6 22 1 71 9 62 1 -2 5 -22 8 -45z m40 29 c15 -17 15 -18
-3 -19 -14 -1 -20 5 -20 18 0 24 3 24 23 1z m-80 -22 c3 -11 1 -18 -4 -14 -5
3 -9 12 -9 20 0 20 7 17 13 -6z m-1883 -180 c-20 -13 -33 -13 -25 0 3 6 14 10
23 10 15 0 15 -2 2 -10z m-57 -77 c-3 -7 -6 -13 -8 -13 -2 0 -5 6 -8 13 -3 8
1 14 8 14 7 0 11 -6 8 -14z m710 -128 c95 -16 167 -43 167 -62 0 -8 4 -12 9
-8 11 6 26 -13 17 -22 -3 -3 -12 0 -20 6 -22 18 -36 5 -36 -32 0 -18 -7 -59
-15 -91 -9 -33 -14 -60 -13 -61 2 -1 12 -7 23 -13 11 -6 14 -12 8 -12 -7 0
-13 -6 -13 -14 0 -8 -11 -17 -25 -20 -14 -4 -23 -10 -20 -15 7 -13 -27 -19
-140 -27 -171 -11 -486 25 -521 61 -19 18 -28 20 -18 3 4 -7 -1 -6 -10 3 -19
18 -35 119 -18 119 6 0 13 -4 16 -9 3 -5 22 -12 41 -15 19 -4 35 -12 35 -17 0
-6 9 -8 20 -4 20 6 50 -5 53 -20 1 -4 23 -9 48 -11 34 -3 53 1 70 15 30 23
206 35 233 16 18 -14 22 -30 4 -19 -6 4 -8 3 -5 -4 4 -5 17 -8 30 -5 18 4 19
3 7 -6 -8 -6 -10 -11 -5 -11 15 0 37 16 35 26 -1 5 4 10 11 13 7 2 9 -1 4 -9
-6 -9 -3 -9 15 0 12 7 25 8 29 4 3 -5 12 -10 20 -12 12 -3 12 0 1 13 -11 13
-10 15 4 9 12 -4 16 0 16 15 0 12 6 21 15 21 21 0 19 19 -6 60 -67 112 -158
143 -341 117 -54 -8 -58 -7 -58 12 0 12 8 21 23 24 34 8 223 -3 310 -18z
m-546 9 c-3 -3 -12 -4 -19 -1 -8 3 -5 6 6 6 11 1 17 -2 13 -5z m-47 -25 c-7
-11 -14 -18 -17 -15 -8 8 5 36 17 36 7 0 7 -6 0 -21z m1735 6 c101 -7 203 -24
210 -35 3 -4 -2 -13 -10 -20 -8 -7 -15 -19 -15 -28 0 -13 -2 -13 -18 1 -17 16
-21 15 -52 -8 -19 -14 -37 -30 -41 -37 -5 -8 -18 -3 -45 17 -21 16 -33 22 -29
14 7 -10 2 -9 -15 3 -62 44 -213 90 -240 73 -6 -3 -10 -1 -10 6 0 8 22 10 78
7 72 -5 75 -4 42 8 l-35 13 45 -4 c25 -2 86 -7 135 -10z m-1978 -37 c-3 -7 -5
-2 -5 12 0 14 2 19 5 13 2 -7 2 -19 0 -25z m1535 -4 c-25 -24 -33 -37 -24 -41
11 -4 10 -8 -2 -22 -8 -9 -17 -28 -21 -43 -6 -23 -2 -30 26 -47 18 -11 37 -17
41 -14 5 3 12 -4 15 -16 3 -12 8 -21 12 -22 3 0 18 -3 34 -5 15 -3 27 0 27 6
0 6 5 8 10 5 17 -10 11 7 -7 22 -10 8 -13 12 -8 10 26 -13 151 -17 203 -7 48
8 66 7 95 -5 50 -21 89 -19 115 6 12 11 26 17 31 14 5 -3 12 -1 16 5 3 5 15
10 26 10 10 0 19 4 19 9 0 5 11 16 25 25 l25 16 0 -71 c0 -67 -2 -73 -34 -105
-19 -19 -29 -35 -22 -38 6 -3 -2 -2 -18 1 -21 4 -27 3 -21 -6 5 -9 1 -12 -11
-10 -11 2 -24 1 -29 -3 -25 -16 -286 -28 -394 -19 -181 16 -245 38 -266 89
-19 43 -19 55 -1 23 l14 -24 11 22 c7 12 9 30 6 41 -3 10 -1 21 5 25 17 10 11
44 -9 55 -11 5 -23 19 -26 30 -3 11 -15 20 -26 20 -21 0 -24 12 -9 40 12 23
111 54 187 59 20 1 19 -3 -15 -35z m-1538 -23 c-2 -3 -12 3 -22 13 -16 17 -16
18 5 5 12 -7 20 -15 17 -18z m2427 -36 c14 10 10 -1 -6 -15 -13 -11 -15 -7
-14 26 2 31 3 33 6 11 2 -15 9 -25 14 -22z m-1617 10 c24 -18 15 -41 -19 -49
-35 -9 -37 -6 -23 32 14 36 16 37 42 17z m832 -63 c-10 -10 -56 12 -56 27 0
31 14 33 37 5 12 -16 21 -30 19 -32z m204 26 c0 17 17 15 24 -4 4 -11 -5 -19
-30 -30 -54 -23 -70 -15 -38 19 21 23 29 26 35 15 6 -10 9 -10 9 0z m-1240
-13 c10 -12 10 -15 -3 -15 -23 0 -47 11 -47 21 0 15 37 10 50 -6z m1820 -15
c0 -5 -4 -10 -10 -10 -5 0 -10 5 -10 10 0 6 5 10 10 10 6 0 10 -4 10 -10z
m-2634 -27 c-1 -16 -9 -39 -18 -52 -10 -13 -15 -28 -12 -33 3 -4 2 -13 -2 -20
-4 -7 -9 -28 -11 -48 -5 -58 -13 -82 -26 -77 -7 2 -13 12 -14 23 -1 10 -4 39
-7 63 -7 56 10 114 42 146 33 33 50 32 48 -2z m2704 -219 c0 -8 -5 -12 -10 -9
-6 4 -8 11 -5 16 9 14 15 11 15 -7z"/>
<path d="M1500 1266 c0 -2 7 -6 15 -10 8 -3 15 -1 15 4 0 6 -7 10 -15 10 -8 0
-15 -2 -15 -4z"/>
<path d="M2470 1199 c0 -5 5 -7 10 -4 6 3 10 8 10 11 0 2 -4 4 -10 4 -5 0 -10
-5 -10 -11z"/>
<path d="M1170 1176 c0 -2 7 -7 16 -10 8 -3 12 -2 9 4 -6 10 -25 14 -25 6z"/>
<path d="M791 1077 c-8 -11 -5 -13 19 -9 17 2 36 0 43 -6 6 -6 32 -13 57 -16
l45 -6 -31 14 c-18 8 -35 19 -38 25 -10 15 -81 14 -95 -2z"/>
<path d="M1008 1083 c7 -3 16 -2 19 1 4 3 -2 6 -13 5 -11 0 -14 -3 -6 -6z"/>
<path d="M705 1020 c-3 -5 -1 -10 4 -10 6 0 11 5 11 10 0 6 -2 10 -4 10 -3 0
-8 -4 -11 -10z"/>
<path d="M1040 680 c0 -5 5 -10 11 -10 5 0 7 5 4 10 -3 6 -8 10 -11 10 -2 0
-4 -4 -4 -10z"/>
<path d="M2510 920 c8 -5 20 -10 25 -10 6 0 3 5 -5 10 -8 5 -19 10 -25 10 -5
0 -3 -5 5 -10z"/>
<path d="M3226 802 c-2 -4 18 -24 45 -45 55 -41 60 -38 24 16 -24 34 -57 48
-69 29z"/>
<path d="M3312 603 c-26 -32 -27 -42 -7 -49 19 -8 19 -51 0 -61 -13 -8 -13
-12 -1 -28 13 -18 14 -18 23 1 15 28 23 107 15 138 l-7 27 -23 -28z"/>
<path d="M3058 420 c-3 -17 -1 -33 4 -36 4 -3 8 11 8 30 0 44 -6 47 -12 6z"/>
<path d="M1563 346 c-40 -26 -67 -93 -69 -165 -1 -72 17 -105 77 -137 27 -15
49 -31 49 -36 0 -4 12 -8 26 -8 14 0 23 4 19 9 -7 13 26 30 45 23 11 -3 12 -1
5 6 -9 10 -36 18 -67 21 -11 1 -10 39 1 45 16 10 103 9 109 -1 13 -19 67 -39
100 -35 40 4 42 22 2 22 -19 0 -52 15 -86 38 -67 47 -89 45 -141 -9 -21 -21
-44 -39 -51 -39 -22 0 -62 48 -62 75 0 54 76 175 101 160 4 -3 12 1 17 8 9 10
5 17 -16 28 -25 15 -29 14 -59 -5z"/>
<path d="M3050 303 c0 -15 -3 -74 -6 -129 -4 -56 -2 -104 2 -107 5 -3 10 27
12 66 2 42 9 78 17 87 7 8 15 24 17 35 2 15 -2 19 -16 17 -15 -3 -17 1 -12 22
3 13 2 28 -4 31 -6 4 -10 -6 -10 -22z"/>
<path d="M3140 280 c-13 -9 -13 -11 0 -20 18 -12 21 -12 39 -1 15 10 7 31 -12
31 -7 0 -19 -5 -27 -10z"/>
<path d="M1981 144 c-29 -21 -17 -32 34 -35 27 -2 46 -9 57 -23 25 -30 23 0
-2 42 -22 36 -52 42 -89 16z"/>
<path d="M2070 55 c-26 -10 -29 -14 -14 -14 12 -1 37 6 55 14 44 19 8 19 -41
0z"/>
</g>
</svg>
